<svg xmlns="http://www.w3.org/2000/svg" width="142" height="139" viewBox="0 0 37.807 36.94"><defs><clipPath clipPathUnits="userSpaceOnUse" id="a"><path d="M0 0h841.89v595.276H0Z"/></clipPath><clipPath clipPathUnits="userSpaceOnUse" id="b"><path d="M249.251 200.583H592.64v194.109H249.251Z"/></clipPath></defs><g clip-path="url(#a)" transform="matrix(.35278 0 0 -.35278 -129.007 139.239)"><path d="M0 0c0 12.466 10.103 22.569 22.561 22.569C35.027 22.569 45.13 12.466 45.13 0c0-1.901-.235-3.745-.682-5.51L22.561-18.147.684-5.517A22.373 22.373 0 0 0 0 0" style="fill:#f47618;fill-opacity:1;fill-rule:nonzero;stroke:none" transform="translate(396.708 308.129)"/></g><g clip-path="url(#b)" style="fill:#fff;fill-opacity:1" transform="matrix(.35278 0 0 -.35278 -129.007 139.239)"><g style="fill:#fff;fill-opacity:1"><path d="M0 0c0 12.466 10.103 22.569 22.561 22.569C35.027 22.569 45.13 12.466 45.13 0c0-1.901-.235-3.745-.682-5.51L22.561-18.147.684-5.517A22.373 22.373 0 0 0 0 0" style="fill:#fff;fill-opacity:1;fill-rule:nonzero;stroke:none" transform="translate(396.708 308.129)"/></g><g style="fill:#fff;fill-opacity:1"><path d="m0 0 15.02-8.673V51.92c0 2.726 2.875 4.496 5.309 3.266l19.009-9.605.427-.216a12.234 12.234 0 0 1-1.99-6.695c0-6.793 5.506-12.298 12.299-12.298 6.791 0 12.297 5.505 12.297 12.298 0 2.471-.735 4.768-1.99 6.695l.428.216 19.009 9.605c2.433 1.23 5.31-.54 5.31-3.266V-8.673L100.146 0a7.024 7.024 0 0 1 3.513 6.082v54.274a6.143 6.143 0 0 1-3.076 5.321l-15.455 8.929a8.045 8.045 0 0 1-7.647.21l-24.95-12.609a5.45 5.45 0 0 0-4.916 0l-24.95 12.609a8.04 8.04 0 0 1-7.645-.21L-.436 65.677a6.14 6.14 0 0 1-3.075-5.321V6.082A7.024 7.024 0 0 1 0 0" style="fill:#fff;fill-opacity:1;fill-rule:nonzero;stroke:none" transform="translate(369.2 319.012)"/></g></g></svg>